<svg width="70" height="70" viewBox="0 0 70 70" fill="none" xmlns="http://www.w3.org/2000/svg">
<g clip-path="url(#clip0)">
<path d="M61.25 30.625H19.25L29.3563 20.5188C30.2181 19.6569 30.625 18.6287 30.625 17.5C30.625 15.3475 28.8466 13.125 26.25 13.125C25.0884 13.125 24.0756 13.5472 23.2312 14.3937L5.82312 31.8019C5.10562 32.5194 4.375 33.4053 4.375 35C4.375 36.5947 4.98531 37.3625 5.78812 38.1653L23.2312 55.6063C24.0756 56.4528 25.0884 56.875 26.25 56.875C28.8487 56.875 30.625 54.6525 30.625 52.5C30.625 51.3713 30.2181 50.3431 29.3563 49.4813L19.25 39.375H61.25C63.665 39.375 65.625 37.415 65.625 35C65.625 32.585 63.665 30.625 61.25 30.625Z" fill="#A5A5A4"/>
</g>
<defs>
<clipPath id="clip0">
<rect width="70" height="70" fill="white"/>
</clipPath>
</defs>
</svg>
