<svg width="70" height="70" viewBox="0 0 70 70" fill="none" xmlns="http://www.w3.org/2000/svg">
<g clip-path="url(#clip0)">
<path d="M-4.98079 14L2.65443 14C2.72656 14 2.78786 14.0337 2.85802 14.0411C3.00443 14.0561 3.14131 14.0804 3.27854 14.1261C3.39339 14.164 3.4971 14.2108 3.60178 14.2677C3.7222 14.3333 3.83083 14.4044 3.93583 14.493C4.03246 14.5742 4.11447 14.6606 4.19432 14.758C4.27665 14.8584 4.34698 14.9607 4.40941 15.077C4.474 15.1965 4.51937 15.319 4.55897 15.4515C4.58048 15.5233 4.62698 15.581 4.64079 15.6564L5.79716 21.9762L55.2109 24.8639C55.4003 24.8508 55.5672 24.8784 55.7789 24.8981C56.8766 24.998 57.6916 25.9603 57.6101 27.0593C57.6035 27.1421 57.593 27.2223 57.5772 27.3012L54.1343 46.079C53.3468 48.9908 50.9214 51.9303 47.2734 51.9303L11.2784 51.9303L12.0491 56.1423L42.3371 56.1423C46.1717 56.1423 49.2926 59.2631 49.2926 63.0978C49.2926 66.9338 46.1717 70.0547 42.3371 70.0547C38.5024 70.0547 35.3815 66.9338 35.3815 63.0978C35.3815 62.0529 35.6298 61.0709 36.0445 60.1807H17.4459C17.8606 61.0709 18.1089 62.0529 18.1089 63.0978C18.1089 66.9338 14.988 70.0547 11.1533 70.0547C7.31867 70.0547 4.19777 66.9338 4.19777 63.0978C4.19777 60.3712 5.79008 58.0295 8.08046 56.8899L0.97123 18.0385H-4.98079C-6.09557 18.0385 -7.00002 17.134 -7.00002 16.0192C-7.00002 14.9044 -6.09557 14 -4.98079 14V14ZM9.09435 39.9942L17.6511 40.1286L17.1851 35.1696L8.16195 34.8991L9.09435 39.9942V39.9942ZM51.8423 36.2086L43.2916 35.9522L42.7322 40.5223L51.0287 40.6526L51.8423 36.2086ZM40.5904 35.8712L31.1918 35.5896V40.3411L40.0261 40.4799L40.5904 35.8712V35.8712ZM31.1918 32.8948L40.9191 33.1865L41.5406 28.1105L31.1918 27.5054V32.8948ZM28.4995 27.348L19.1027 26.7985L19.6431 32.5486L28.4995 32.8141V27.348ZM31.1918 43.034L31.1918 47.8918L39.1187 47.8918L39.6972 43.1676L31.1918 43.034ZM28.4995 42.9918L20.6127 42.8681L21.0848 47.8918H28.4995L28.4995 42.9918V42.9918ZM28.4995 40.2988V35.5089L19.8969 35.2509L20.3593 40.171L28.4995 40.2988V40.2988ZM7.66619 32.1895L16.9312 32.4672L16.3836 26.6396L6.54533 26.0643L7.66619 32.1895ZM44.2325 28.2679L43.6204 33.2673L52.3331 33.5286C52.7002 31.534 52.9926 29.9839 53.2417 28.7946L44.2325 28.2679ZM50.1984 45.189L50.5372 43.3379L42.4031 43.2102L41.8299 47.8918H47.2734C49.0034 47.8918 49.967 46.0172 50.1984 45.189V45.189ZM18.3805 47.8918L17.9045 42.8255L9.58847 42.6948L10.5394 47.8918H18.3805V47.8918ZM39.4199 63.0978C39.4199 64.7069 40.728 66.0162 42.3371 66.0162C43.9461 66.0162 45.2541 64.7069 45.2541 63.0978C45.2541 61.4887 43.9461 60.1807 42.3371 60.1807C40.728 60.1807 39.4199 61.4888 39.4199 63.0978ZM11.1533 66.0162C12.7624 66.0162 14.0704 64.7069 14.0704 63.0978C14.0704 61.4887 12.7624 60.1807 11.1533 60.1807C9.54429 60.1807 8.23623 61.4888 8.23623 63.0978C8.23623 64.7069 9.54426 66.0162 11.1533 66.0162Z" fill="white"/>
</g>
<defs>
<clipPath id="clip0">
<rect width="70" height="70" fill="white" transform="matrix(-1 0 0 1 70 0)"/>
</clipPath>
</defs>
</svg>
