<svg width="90" height="90" viewBox="0 0 90 90" fill="none" xmlns="http://www.w3.org/2000/svg">
<g clip-path="url(#clip0)">
<path d="M44.8281 89.9996L44.8683 89.9998H44.8545L44.8281 89.9996ZM45.1455 89.9998H45.1317L45.1719 89.9996L45.1455 89.9998ZM44.6906 89.9989L44.734 89.9991H44.7091L44.6906 89.9989ZM45.2909 89.9991H45.266L45.3094 89.9989L45.2909 89.9991ZM44.5581 89.9979L44.5871 89.9981L44.5639 89.9979H44.5581ZM45.4361 89.9979L45.4129 89.9981L45.4419 89.9979H45.4361ZM45.5813 89.9963L45.5711 89.9965L45.6103 89.9959L45.5813 89.9963ZM44.3897 89.9959L44.4289 89.9965L44.4187 89.9963L44.3897 89.9959ZM45.7263 89.9942L45.7026 89.9945L45.7509 89.9938L45.7263 89.9942ZM44.2491 89.9938L44.2974 89.9945L44.2737 89.9942L44.2491 89.9938ZM45.8712 89.9917L45.8392 89.9923L45.8838 89.9914L45.8712 89.9917ZM44.1162 89.9914L44.1608 89.9923L44.1288 89.9917L44.1162 89.9914ZM43.9515 89.988L43.991 89.9889L43.984 89.9887L43.9515 89.988ZM46.016 89.9887L46.009 89.9889L46.0485 89.988L46.016 89.9887ZM43.807 89.9844L43.8613 89.9858L43.8393 89.9852L43.807 89.9844ZM46.1607 89.9852L46.1387 89.9858L46.193 89.9844L46.1607 89.9852ZM46.3054 89.9814L46.27 89.9824L46.3256 89.9808L46.3054 89.9814ZM43.6744 89.9808L43.73 89.9824L43.6946 89.9814L43.6744 89.9808ZM43.5479 89.977L43.5874 89.9782L43.5502 89.977L43.5161 89.9759L43.5479 89.977ZM46.4498 89.977L46.4126 89.9782L46.4521 89.977L46.4839 89.9759L46.4498 89.977ZM46.5942 89.9722L46.5745 89.9729L46.6351 89.9708L46.5942 89.9722ZM43.3649 89.9708L43.4255 89.9729L43.4058 89.9722L43.3649 89.9708ZM43.2332 89.9659L43.2969 89.9682L43.2615 89.9669L43.2332 89.9659ZM46.7385 89.9669L46.7031 89.9682L46.7668 89.9659L46.7385 89.9669ZM43.104 89.9606L43.1662 89.9632L43.1176 89.9613L43.104 89.9606ZM46.8824 89.9613L46.8338 89.9632L46.896 89.9606L46.8824 89.9613ZM42.923 89.9527L42.9898 89.9557L42.9734 89.9552L42.923 89.9527ZM47.0266 89.9552L47.0102 89.9557L47.077 89.9527L47.0266 89.9552ZM42.7931 89.9467L42.8623 89.9499L42.8296 89.9485L42.7931 89.9467ZM47.1704 89.9485L47.1377 89.9499L47.2069 89.9467L47.1704 89.9485ZM42.6651 89.9402L42.7349 89.9437L42.6858 89.9415L42.6651 89.9402ZM47.3142 89.9415L47.2651 89.9437L47.3349 89.9402L47.3142 89.9415ZM47.458 89.9339L47.3943 89.9372L47.4507 89.9342L47.5172 89.9306L47.458 89.9339ZM42.5493 89.9342L42.6057 89.9372L42.542 89.9339L42.4828 89.9306L42.5493 89.9342ZM47.6014 89.9258L47.5733 89.9274L47.6446 89.9233L47.6014 89.9258ZM42.3554 89.9233L42.4267 89.9274L42.3986 89.9258L42.3554 89.9233ZM42.2285 89.9158L42.2996 89.92L42.2552 89.9175L42.2285 89.9158ZM47.7448 89.9175L47.7004 89.92L47.7715 89.9158L47.7448 89.9175ZM42.1073 89.9082L42.1715 89.9123L42.1117 89.9086L42.0516 89.9047L42.1073 89.9082ZM47.8883 89.9086L47.8285 89.9123L47.8927 89.9082L47.9484 89.9047L47.8883 89.9086ZM48.0313 89.8993L48.0099 89.9007L48.0779 89.8961L48.0313 89.8993ZM41.9221 89.8961L41.9901 89.9007L41.9687 89.8993L41.9221 89.8961ZM41.7953 89.8873L41.8621 89.8921L41.8256 89.8896L41.7953 89.8873ZM48.1744 89.8896L48.1379 89.8921L48.2047 89.8873L48.1744 89.8896ZM41.6689 89.8784L41.7303 89.8828L41.6827 89.8794L41.6689 89.8784ZM48.3173 89.8794L48.2697 89.8828L48.3311 89.8784L48.3173 89.8794ZM41.499 89.8655L41.5528 89.8696L41.5397 89.8687L41.499 89.8655ZM48.4603 89.8687L48.4472 89.8696L48.501 89.8655L48.4603 89.8687ZM48.6028 89.8576L48.5771 89.8595L48.6318 89.8551L48.6028 89.8576ZM41.3682 89.8551L41.4229 89.8595L41.3972 89.8576L41.3682 89.8551ZM41.2407 89.8448L41.2872 89.8486L41.2545 89.846L41.2407 89.8448ZM48.7455 89.846L48.7129 89.8486L48.7593 89.8448L48.7455 89.846ZM41.1005 89.833L41.1144 89.8342L41.1121 89.8341L41.1005 89.833ZM48.8879 89.8341L48.8856 89.8342L48.8995 89.833L48.8879 89.8341ZM49.0303 89.8216L49.0177 89.8226L49.0495 89.8198L49.0303 89.8216ZM40.9505 89.8198L40.9823 89.8226L40.9697 89.8216L40.9505 89.8198ZM40.8187 89.8079L40.8424 89.8102L40.8277 89.8087L40.8187 89.8079ZM49.1723 89.8087L49.1576 89.8102L49.1813 89.8079L49.1723 89.8087ZM37.9688 89.4528C16.4674 86.0732 0 67.4445 0 45C0 20.1639 20.1639 0 45 0C69.8361 0 90 20.1639 90 45C90 67.4445 73.5326 86.0732 52.0312 89.4528V58.0078H62.5166L64.5117 45H52.0312V36.5588C52.0312 33.0001 53.7746 29.5312 59.3647 29.5312H65.0391V18.457C65.0391 18.457 59.8894 17.5781 54.9659 17.5781C44.6869 17.5781 37.9688 23.8078 37.9688 35.0859V45H26.543V58.0078H37.9688V89.4528Z" fill="white"/>
</g>
<defs>
<clipPath id="clip0">
<rect width="90" height="90" fill="white"/>
</clipPath>
</defs>
</svg>
