<svg width="90" height="90" viewBox="0 0 90 90" fill="none" xmlns="http://www.w3.org/2000/svg">
<g clip-path="url(#clip0)">
<path d="M45.4206 0.630737C20.5665 0.630737 0.420593 20.7767 0.420593 45.6307C0.420593 70.482 20.5665 90.6307 45.4206 90.6307C70.2747 90.6307 90.4206 70.482 90.4206 45.6307C90.4206 20.7767 70.2747 0.630737 45.4206 0.630737Z" fill="white"/>
<path d="M62.0354 22.303H27.9648C24.7585 22.303 22.2863 24.7752 22.2863 27.9814V62.0492C22.2863 65.2555 24.7585 67.7277 27.9648 67.7277H62.0326C65.2388 67.7277 67.711 65.2555 67.711 62.0492V27.9814C67.7138 24.7724 65.2388 22.303 62.0354 22.303ZM45.0338 36.0927C50.071 36.0927 54.1548 40.0499 54.1548 44.9295C54.1548 49.8092 50.071 53.7664 45.0338 53.7664C39.9994 53.7664 35.9157 49.8064 35.9157 44.9295C35.9157 40.047 39.9994 36.0927 45.0338 36.0927ZM62.0354 60.6289C62.0354 61.6245 61.6107 62.0492 60.6151 62.0492H29.3851C28.3923 62.0492 27.9648 61.6245 27.9648 60.6289V40.7558L31.5029 41.5264C31.1232 42.7611 30.9179 44.0661 30.9179 45.4217C30.9179 52.9705 37.2404 59.0989 45.031 59.0989C52.8273 59.0989 59.1469 52.9733 59.1469 45.4217C59.1469 44.0661 58.9416 42.7611 58.5619 41.5264L62.0326 40.7558V60.6289H62.0354ZM62.0354 35.0774C62.0354 35.862 61.3998 36.4977 60.6151 36.4977H54.9366C54.1519 36.4977 53.5163 35.862 53.5163 35.0774V29.3989C53.5163 28.6142 54.1519 27.9786 54.9366 27.9786H60.6151C61.3998 27.9786 62.0354 28.6142 62.0354 29.3989V35.0774Z" fill="#0073B2"/>
</g>
<defs>
<clipPath id="clip0">
<rect width="90" height="90" fill="white"/>
</clipPath>
</defs>
</svg>
