<svg width="45" height="45" viewBox="0 0 45 45" fill="none" xmlns="http://www.w3.org/2000/svg">
<g clip-path="url(#clip0)">
<path d="M26.4909 36.8372V35.6541H18.509V36.8372C18.509 38.145 17.4506 39.2025 16.1446 39.2025H14.1946V41.5659H30.8043V39.2025H28.8553C27.5503 39.2025 26.4909 38.145 26.4909 36.8372Z" fill="#D9D2D2"/>
<path d="M42.5625 3.43311H2.45623H2.43748H0.0327881V5.67279C0.0281006 5.73373 0.0140381 5.79279 0.0140381 5.85561V30.5934V32.0512V34.4737H2.43748H4.06123H41.6409H42.5625H44.9662V32.234C44.9709 32.174 44.985 32.1131 44.985 32.0512V31.74V5.85561V3.43311H42.5625ZM22.5 33.0319C21.8475 33.0319 21.3178 32.5031 21.3178 31.8487C21.3178 31.1944 21.8475 30.6656 22.5 30.6656C23.1534 30.6656 23.6831 31.1944 23.6831 31.8487C23.6831 32.5031 23.1534 33.0319 22.5 33.0319ZM2.45623 29.4469V5.63061H42.5625V29.4469H2.45623Z" fill="#D9D2D2"/>
</g>
<defs>
<clipPath id="clip0">
<rect width="45" height="45" fill="white"/>
</clipPath>
</defs>
</svg>
