<svg width="80" height="80" viewBox="0 0 80 80" fill="none" xmlns="http://www.w3.org/2000/svg">
<g clip-path="url(#clip0)">
<g clip-path="url(#clip1)">
<path d="M47.095 65.4883V63.385H32.905V65.4883C32.905 67.8133 31.0233 69.6934 28.7017 69.6934H25.235V73.895H54.7633V69.6934H51.2983C48.9783 69.6934 47.095 67.8133 47.095 65.4883Z" fill="white"/>
<path d="M75.6667 6.10339H4.36669H4.33336H0.0583577V10.0851C0.0500244 10.1934 0.0250244 10.2984 0.0250244 10.4101V54.3884V56.9801V61.2867H4.33336H7.22002H74.0284H75.6667H79.94V57.3051C79.9484 57.1984 79.9734 57.0901 79.9734 56.9801V56.4267V10.4101V6.10339H75.6667ZM40 58.7234C38.84 58.7234 37.8984 57.7834 37.8984 56.6201C37.8984 55.4567 38.84 54.5167 40 54.5167C41.1617 54.5167 42.1034 55.4567 42.1034 56.6201C42.1034 57.7834 41.1617 58.7234 40 58.7234ZM4.36669 52.3501V10.0101H75.6667V52.3501H4.36669Z" fill="white"/>
</g>
</g>
<defs>
<clipPath id="clip0">
<rect width="80" height="80" fill="white"/>
</clipPath>
<clipPath id="clip1">
<rect width="80" height="80" fill="white"/>
</clipPath>
</defs>
</svg>
