<svg width="60" height="60" viewBox="0 0 60 60" fill="none" xmlns="http://www.w3.org/2000/svg">
<g clip-path="url(#clip0)">
<path d="M30 60C46.5685 60 60 46.5685 60 30C60 13.4315 46.5685 0 30 0C13.4315 0 0 13.4315 0 30C0 46.5685 13.4315 60 30 60Z" fill="#D9D2D2"/>
<path d="M33.7383 21.6563C33.8437 22.1602 33.8086 22.6758 33.8086 23.1914C33.8086 26.0156 33.7969 28.8398 33.8203 31.6758C34.6758 32.0742 35.5898 32.3789 36.5391 32.3672C37.1602 32.3789 37.793 32.2383 38.3437 31.9453C38.918 31.6406 39.3867 31.1602 39.7266 30.6094C40.1133 29.9883 40.3477 29.2734 40.4766 28.5586C40.6289 27.7266 40.6406 26.8828 40.6055 26.0391C40.5469 24.75 40.3594 23.4492 39.7969 22.2773C39.4922 21.6328 39.0703 21.0352 38.5547 20.5312C38.0859 20.0508 37.5234 19.6523 36.9492 19.3008C35.6602 18.5391 34.2539 18.0234 32.8242 17.5781C31.9219 17.2852 31.0078 17.0156 30.0937 16.7461C28.5 16.2891 26.8945 15.8555 25.2656 15.5508C25.2656 24.5508 25.2656 33.5508 25.2656 42.5508C27.3047 43.1953 29.332 43.8398 31.3711 44.4844C31.3711 36.9141 31.3711 29.3555 31.3711 21.7852C31.3828 21.3516 31.4531 20.8945 31.7344 20.5547C31.8984 20.3437 32.1914 20.2266 32.4492 20.2734C32.7187 20.332 32.9766 20.4375 33.1758 20.6133C33.5039 20.8711 33.6562 21.2578 33.7383 21.6563ZM17.7891 37.6523C19.8867 36.9023 21.9844 36.1523 24.082 35.4023C24.1055 35.2617 24.0937 35.1211 24.0937 34.9805C24.0937 33.9375 24.0937 32.8945 24.0937 31.8516C21.4336 32.7891 18.7852 33.7383 16.1367 34.6758C15.4922 34.9102 14.8359 35.1211 14.2031 35.3906C13.4648 35.6953 12.7383 36.0469 12.082 36.5039C11.8008 36.7031 11.543 36.9492 11.3906 37.2656C11.2383 37.582 11.2266 37.957 11.3555 38.2852C11.5078 38.6719 11.7891 38.9883 12.1172 39.2344C12.7031 39.6797 13.4062 39.9492 14.1094 40.1602C16.2539 40.8633 18.5156 41.2148 20.7656 41.168C21.8906 41.1445 23.0039 41.0156 24.1055 40.8164C24.1172 40.6406 24.1172 40.4648 24.1172 40.2891C24.1172 39.4102 24.1172 38.5195 24.1172 37.6406C23.2148 37.957 22.3242 38.2852 21.4336 38.6133C21.0937 38.7422 20.7422 38.8594 20.3789 38.9297C19.8398 39.0469 19.3008 39.0938 18.75 39.0938C18.2578 39.0703 17.7539 39.0469 17.2969 38.8594C17.1328 38.7891 16.957 38.6953 16.875 38.5195C16.8164 38.3672 16.8984 38.2148 17.0039 38.1094C17.1914 37.8867 17.4961 37.7695 17.7891 37.6523ZM48.1523 35.625C47.625 35.1445 46.957 34.8516 46.2891 34.6172C45.9141 34.5 45.5508 34.3477 45.1758 34.2422C43.2773 33.6445 41.2734 33.3984 39.2812 33.3867C38.6719 33.4102 38.0742 33.4219 37.4648 33.4922C35.7891 33.6797 34.125 34.0195 32.5312 34.582C32.5312 35.8008 32.5312 37.0312 32.5312 38.25C34.7344 37.4766 36.9375 36.7031 39.1406 35.9297C39.8789 35.6836 40.6523 35.5898 41.4258 35.5781C41.918 35.5898 42.4219 35.625 42.8906 35.8125C43.0547 35.8828 43.2305 35.9766 43.3008 36.1523C43.3711 36.3516 43.2305 36.5273 43.0898 36.6445C42.7383 36.9258 42.2812 37.043 41.8711 37.1953C38.7773 38.2969 35.6836 39.3984 32.5898 40.5C32.5312 40.5117 32.5547 40.5937 32.543 40.6406C32.543 41.7773 32.543 42.9141 32.543 44.0625C36.6094 42.5977 40.6758 41.1445 44.7422 39.6797C45.4102 39.4336 46.0898 39.2227 46.7227 38.8945C47.3203 38.5898 47.918 38.25 48.3633 37.7461C48.5977 37.4766 48.7617 37.125 48.75 36.7617C48.75 36.3164 48.4687 35.918 48.1523 35.625Z" fill="white"/>
</g>
<defs>
<clipPath id="clip0">
<rect width="60" height="60" fill="white"/>
</clipPath>
</defs>
</svg>
