<svg width="80" height="80" viewBox="0 0 80 80" fill="none" xmlns="http://www.w3.org/2000/svg">
<g clip-path="url(#clip0)">
<path d="M40 80C62.0914 80 80 62.0914 80 40C80 17.9086 62.0914 0 40 0C17.9086 0 0 17.9086 0 40C0 62.0914 17.9086 80 40 80Z" fill="#003087"/>
<path d="M44.9844 28.875C45.125 29.5469 45.0781 30.2344 45.0781 30.9219C45.0781 34.6875 45.0625 38.4531 45.0937 42.2344C46.2344 42.7656 47.4531 43.1719 48.7187 43.1563C49.5469 43.1719 50.3906 42.9844 51.125 42.5938C51.8906 42.1875 52.5156 41.5469 52.9687 40.8125C53.4844 39.9844 53.7969 39.0313 53.9687 38.0781C54.1719 36.9688 54.1875 35.8438 54.1406 34.7188C54.0625 33 53.8125 31.2656 53.0625 29.7031C52.6562 28.8438 52.0937 28.0469 51.4062 27.375C50.7812 26.7344 50.0312 26.2031 49.2656 25.7344C47.5469 24.7188 45.6719 24.0313 43.7656 23.4375C42.5625 23.0469 41.3437 22.6875 40.125 22.3281C38 21.7187 35.8594 21.1406 33.6875 20.7344C33.6875 32.7344 33.6875 44.7344 33.6875 56.7344C36.4062 57.5938 39.1094 58.4531 41.8281 59.3125C41.8281 49.2188 41.8281 39.1406 41.8281 29.0469C41.8437 28.4688 41.9375 27.8594 42.3125 27.4063C42.5312 27.125 42.9219 26.9688 43.2656 27.0313C43.625 27.1094 43.9687 27.25 44.2344 27.4844C44.6719 27.8281 44.875 28.3438 44.9844 28.875ZM23.7188 50.2031C26.5156 49.2031 29.3125 48.2031 32.1094 47.2031C32.1406 47.0156 32.125 46.8281 32.125 46.6406C32.125 45.25 32.125 43.8594 32.125 42.4688C28.5781 43.7188 25.0469 44.9844 21.5156 46.2344C20.6562 46.5469 19.7812 46.8281 18.9375 47.1875C17.9531 47.5938 16.9844 48.0625 16.1094 48.6719C15.7344 48.9375 15.3906 49.2656 15.1875 49.6875C14.9844 50.1094 14.9688 50.6094 15.1406 51.0469C15.3438 51.5625 15.7188 51.9844 16.1563 52.3125C16.9375 52.9063 17.875 53.2656 18.8125 53.5469C21.6719 54.4844 24.6875 54.9531 27.6875 54.8906C29.1875 54.8594 30.6719 54.6875 32.1406 54.4219C32.1562 54.1875 32.1562 53.9531 32.1562 53.7188C32.1562 52.5469 32.1562 51.3594 32.1562 50.1875C30.9531 50.6094 29.7656 51.0469 28.5781 51.4844C28.125 51.6563 27.6562 51.8125 27.1719 51.9063C26.4531 52.0625 25.7344 52.125 25 52.125C24.3437 52.0938 23.6719 52.0625 23.0625 51.8125C22.8438 51.7188 22.6094 51.5938 22.5 51.3594C22.4219 51.1563 22.5313 50.9531 22.6719 50.8125C22.9219 50.5156 23.3281 50.3594 23.7188 50.2031ZM64.2031 47.5C63.5 46.8594 62.6094 46.4688 61.7187 46.1563C61.2187 46 60.7344 45.7969 60.2344 45.6563C57.7031 44.8594 55.0312 44.5313 52.375 44.5156C51.5625 44.5469 50.7656 44.5625 49.9531 44.6563C47.7187 44.9063 45.5 45.3594 43.375 46.1094C43.375 47.7344 43.375 49.375 43.375 51C46.3125 49.9688 49.25 48.9375 52.1875 47.9063C53.1719 47.5781 54.2031 47.4531 55.2344 47.4375C55.8906 47.4531 56.5625 47.5 57.1875 47.75C57.4062 47.8438 57.6406 47.9688 57.7344 48.2031C57.8281 48.4688 57.6406 48.7031 57.4531 48.8594C56.9844 49.2344 56.375 49.3906 55.8281 49.5938C51.7031 51.0625 47.5781 52.5313 43.4531 54C43.375 54.0156 43.4062 54.125 43.3906 54.1875C43.3906 55.7031 43.3906 57.2188 43.3906 58.75C48.8125 56.7969 54.2344 54.8594 59.6562 52.9063C60.5469 52.5781 61.4531 52.2969 62.2969 51.8594C63.0937 51.4531 63.8906 51 64.4844 50.3281C64.7969 49.9688 65.0156 49.5 65 49.0156C65 48.4219 64.625 47.8906 64.2031 47.5Z" fill="white"/>
</g>
<defs>
<clipPath id="clip0">
<rect width="80" height="80" fill="white"/>
</clipPath>
</defs>
</svg>
