<svg width="30" height="30" viewBox="0 0 30 30" fill="none" xmlns="http://www.w3.org/2000/svg">
<g clip-path="url(#clip0)">
<path d="M-0.00360107 13.125C0.000616564 16.6047 1.38478 19.9406 3.84528 22.4011C6.30578 24.8616 9.64173 26.2458 13.1214 26.25C15.948 26.2408 18.6946 25.3104 20.945 23.6L26.7957 29.4507C26.9696 29.6256 27.1763 29.7644 27.404 29.8593C27.6317 29.9542 27.8758 30.0032 28.1225 30.0035C28.3691 30.0039 28.6134 29.9555 28.8413 29.8613C29.0693 29.7671 29.2764 29.6288 29.4508 29.4544C29.6252 29.28 29.7635 29.0729 29.8577 28.845C29.9519 28.617 30.0002 28.3727 29.9999 28.1261C29.9996 27.8794 29.9505 27.6353 29.8557 27.4076C29.7608 27.18 29.622 26.9732 29.4471 26.7993L23.5964 20.9486C25.3068 18.6982 26.2371 15.9516 26.2464 13.125C26.2464 9.64404 24.8636 6.30564 22.4022 3.84423C19.9408 1.38281 16.6024 3.8147e-06 13.1214 3.8147e-06C9.64043 3.8147e-06 6.30204 1.38281 3.84062 3.84423C1.37921 6.30564 -0.00360107 9.64404 -0.00360107 13.125H-0.00360107ZM22.4964 13.125C22.4964 14.9792 21.9466 16.7918 20.9164 18.3335C19.8863 19.8752 18.4221 21.0768 16.7091 21.7864C14.996 22.496 13.111 22.6816 11.2924 22.3199C9.47385 21.9581 7.80339 21.0653 6.49227 19.7541C5.18116 18.443 4.28827 16.7726 3.92654 14.954C3.5648 13.1354 3.75046 11.2504 4.46003 9.53735C5.1696 7.82429 6.37122 6.36012 7.91293 5.32998C9.45464 4.29984 11.2672 3.75 13.1214 3.75C15.6069 3.75292 17.9898 4.74158 19.7473 6.4991C21.5048 8.25662 22.4935 10.6395 22.4964 13.125Z" fill="#D9D2D2"/>
</g>
<defs>
<clipPath id="clip0">
<rect width="30" height="30" fill="white"/>
</clipPath>
</defs>
</svg>
