<svg width="90" height="90" viewBox="0 0 90 90" fill="none" xmlns="http://www.w3.org/2000/svg">
<path d="M45 0C20.1459 0 0 20.1459 0 45C0 69.8513 20.1459 90 45 90C69.8541 90 90 69.8513 90 45C90 20.1459 69.8541 0 45 0Z" fill="white"/>
<path d="M51.2606 24.9918C46.7887 26.6203 43.9621 30.8165 44.2828 35.4093L44.3896 37.1812L42.6009 36.9646C36.09 36.1321 30.4003 33.3112 25.5684 28.5721L23.2059 26.2209L22.6012 27.9562C21.3131 31.8262 22.1371 35.9156 24.8203 38.6662C26.2518 40.185 25.9284 40.4015 23.4618 39.4987C22.604 39.209 21.8503 38.9925 21.78 39.1021C21.5296 39.3553 22.3875 42.6459 23.0681 43.9509C23.999 45.7621 25.8946 47.5312 27.9703 48.5831L29.7253 49.4156L27.6468 49.4465C25.6443 49.4465 25.5712 49.4831 25.7878 50.2453C26.5021 52.5965 29.3287 55.094 32.4787 56.1796L34.6978 56.939L32.7656 58.0978C29.9025 59.7656 26.5387 60.705 23.175 60.7725C21.5634 60.809 20.2387 60.9525 20.2387 61.0622C20.2387 61.4222 24.6065 63.4472 27.1434 64.2459C34.7653 66.5972 43.8187 65.5818 50.6165 61.5684C55.4484 58.7109 60.2775 53.0296 62.5331 47.5284C63.7509 44.6006 64.9659 39.2456 64.9659 36.6778C64.9659 35.0128 65.0728 34.7962 67.0753 32.8078C68.2565 31.649 69.3647 30.3834 69.5812 30.0234C69.9412 29.3343 69.9018 29.3343 68.0793 29.9503C65.039 31.0359 64.6087 30.8925 66.1134 29.264C67.2215 28.1053 68.5462 26.0071 68.5462 25.394C68.5462 25.2871 68.009 25.4671 67.4015 25.7906C66.7575 26.1534 65.3259 26.6962 64.2515 27.0196L62.3193 27.6356L60.5672 26.4375C59.5997 25.7878 58.244 25.0621 57.5268 24.8456C55.6987 24.3393 52.9087 24.4125 51.2606 24.9918V24.9918Z" fill="#0073B2"/>
</svg>
