<svg width="80" height="80" viewBox="0 0 80 80" fill="none" xmlns="http://www.w3.org/2000/svg">
<g clip-path="url(#clip0)">
<g clip-path="url(#clip1)">
<path d="M40 80C62.0914 80 80 62.0914 80 40C80 17.9086 62.0914 0 40 0C17.9086 0 0 17.9086 0 40C0 62.0914 17.9086 80 40 80Z" fill="#7EB900"/>
<path d="M40.5 15.5C37.7188 15.4531 34.9063 15.8594 32.3125 16.6875C30.0469 17.4219 28.0625 18.2031 27.9219 18.4375C27.7813 18.6719 29.2969 19.2969 31.2969 19.8437C33.2969 20.3906 36 21.4687 37.2813 22.2187C40.2031 23.9531 40.0938 23.9375 42.375 22.5312C44.9844 20.9219 51.5 18.9375 53 19.2969C53.6719 19.4531 52.5469 18.7812 50.5156 17.7812C47.5781 16.3437 44.0781 15.5625 40.5 15.5ZM56.2656 21.125L54.125 22.2812C52.9375 22.9219 50.6406 24.6406 49.0469 26.125L46.1406 28.7969L49.3906 32.8594C56.125 41.2344 59.8438 48.4219 59.9062 53.1719L59.9375 55.4375L61.6406 52.8906C64.2656 48.9687 65.2031 44.9531 64.9688 38.7344C64.7969 34.0937 64.5156 32.8281 62.9062 29.5625C61.875 27.4844 59.9688 24.7344 58.6719 23.4531L56.2656 21.125ZM24.3125 21.4844C23.8594 21.4687 23.4531 21.6719 22.7969 22.1094C20.9688 23.3125 17.5938 28.4375 16.1563 32.2031C13.8438 38.2812 15.1094 47.6406 18.9688 53.3125C20.5 55.5469 20.8281 55.7812 20.3438 54.2187C19.3594 51.125 24.4219 40.9531 31 32.8125L34.2969 28.7656L31.2188 26.0312C29.5313 24.5312 27.2813 22.8125 26.1875 22.2344C25.2813 21.7344 24.7656 21.5 24.3125 21.4844ZM40 34.2187L35.8594 37.8125C28.5 44.1719 21.7656 52.7656 21.7656 55.8437C21.7656 58.1406 28.3906 62.3906 34.3281 63.9062C40.6562 65.5156 49.5313 63.7812 54.9531 59.8906C59.4531 56.6562 59.5781 55.5156 56.2031 50.4062C54.1094 47.25 44.7969 37.5781 41.875 35.5469L40 34.2187Z" fill="white"/>
</g>
</g>
<defs>
<clipPath id="clip0">
<rect width="80" height="80" fill="white"/>
</clipPath>
<clipPath id="clip1">
<rect width="80" height="80" fill="white"/>
</clipPath>
</defs>
</svg>
