<svg width="60" height="60" viewBox="0 0 60 60" fill="none" xmlns="http://www.w3.org/2000/svg">
<path d="M26.25 52.5C40.7475 52.5 52.5 40.7475 52.5 26.25C52.5 11.7525 40.7475 0 26.25 0C11.7525 0 0 11.7525 0 26.25C0 40.7475 11.7525 52.5 26.25 52.5Z" fill="#D9D2D2"/>
<path d="M26.5781 10.1718C24.7529 10.1411 22.9072 10.4077 21.2051 10.9511C19.7182 11.4331 18.416 11.9457 18.3237 12.0996C18.2314 12.2534 19.2261 12.6635 20.5386 13.0224C21.8511 13.3813 23.625 14.0888 24.4658 14.581C26.3833 15.7192 26.3115 15.7089 27.8086 14.7861C29.521 13.7299 33.7969 12.4277 34.7812 12.6635C35.2222 12.7661 34.4839 12.3251 33.1509 11.6689C31.2231 10.7255 28.9263 10.2128 26.5781 10.1718ZM36.9243 13.8632L35.5195 14.622C34.7402 15.0424 33.2329 16.1704 32.187 17.1445L30.2798 18.8979L32.4126 21.5639C36.832 27.06 39.2724 31.7768 39.3135 34.894L39.334 36.3808L40.4516 34.7094C42.1743 32.1357 42.7895 29.5004 42.6357 25.4194C42.5229 22.374 42.3384 21.5434 41.2822 19.4003C40.6055 18.0366 39.3545 16.2319 38.5034 15.3911L36.9243 13.8632ZM15.9551 14.0991C15.6577 14.0888 15.3911 14.2221 14.9604 14.5092C13.7607 15.2988 11.5459 18.6621 10.6025 21.1333C9.08495 25.122 9.91552 31.2641 12.4482 34.9863C13.4531 36.4526 13.6684 36.6064 13.3506 35.581C12.7046 33.5507 16.0268 26.8754 20.3437 21.5332L22.5073 18.8774L20.4873 17.083C19.3799 16.0986 17.9033 14.9707 17.1855 14.5913C16.5908 14.2631 16.2524 14.1093 15.9551 14.0991ZM26.25 22.456L23.5327 24.8144C18.7031 28.9877 14.2837 34.6274 14.2837 36.6474C14.2837 38.1547 18.6313 40.9438 22.5278 41.9384C26.6807 42.9946 32.5049 41.8564 36.063 39.3032C39.0161 37.1806 39.0981 36.4321 36.8833 33.0791C35.5093 31.0078 29.3979 24.6606 27.4805 23.3276L26.25 22.456Z" fill="white"/>
</svg>
